<svg width="20" height="20" viewBox="0 0 20 20" fill="none" xmlns="http://www.w3.org/2000/svg">
<path d="M9.99792 0.623047C6.20837 0.623047 3.12354 3.70789 3.12354 7.49743C3.12353 14.1654 9.61037 19.2346 9.61037 19.2346C9.7211 19.323 9.85856 19.3711 10.0002 19.3711C10.1419 19.3711 10.2794 19.323 10.3901 19.2346C10.3901 19.2346 16.8769 14.1654 16.8769 7.49743C16.8769 3.70789 13.7875 0.623047 9.99792 0.623047ZM9.99792 1.87335C13.1119 1.87335 15.6266 4.38343 15.6266 7.49743C15.6266 12.9524 10.6871 17.2622 10.0025 17.8459C9.32124 17.2651 4.37384 12.9545 4.37384 7.49743C4.37384 4.38343 6.88392 1.87335 9.99792 1.87335Z" fill="black"/>
<path d="M9.99797 4.3739C8.27949 4.3739 6.87452 5.77888 6.87451 7.49736C6.8745 9.21587 8.27948 10.6254 9.99797 10.6254C11.7165 10.6254 13.1261 9.21587 13.126 7.49736C13.126 5.77888 11.7165 4.3739 9.99797 4.3739ZM9.99797 5.62421C11.0409 5.62421 11.8757 6.45443 11.8757 7.49736C11.8757 8.5403 11.0409 9.37513 9.99797 9.37513C8.95503 9.37513 8.12481 8.5403 8.12482 7.49736C8.12482 6.45443 8.95504 5.62421 9.99797 5.62421Z" fill="black"/>
</svg>
