<svg width="20" height="20" viewBox="0 0 20 20" fill="none" xmlns="http://www.w3.org/2000/svg">
<path d="M4.2633 10.6059L6.79547 7.57246C7.05212 7.24247 7.18046 7.07747 7.24772 6.89242C7.30722 6.72867 7.33184 6.55429 7.32 6.38048C7.30661 6.18404 7.22897 5.98996 7.07372 5.6018L6.48147 4.12119C6.2517 3.54675 6.13681 3.25954 5.93862 3.07129C5.76398 2.90539 5.54514 2.79349 5.30841 2.74904C5.03975 2.6986 4.73965 2.77363 4.13944 2.92368L2.5 3.33359C2.5 11.6669 8.33307 17.5002 16.6667 17.5002L17.0763 15.8606C17.2264 15.2604 17.3014 14.9602 17.251 14.6917C17.2065 14.4549 17.0947 14.2361 16.9288 14.0614C16.7405 13.8632 16.4532 13.7483 15.8788 13.5186L14.5576 12.9901C14.1148 12.8129 13.8933 12.7243 13.6726 12.7176C13.4774 12.7116 13.2837 12.7513 13.1067 12.8337C12.9064 12.9269 12.7378 13.0956 12.4006 13.4328L9.82858 15.9643" stroke="black" stroke-width="2" stroke-linecap="round" stroke-linejoin="round"/>
</svg>
