<svg width="25" height="25" viewBox="0 0 25 25" fill="none" xmlns="http://www.w3.org/2000/svg">
<g clip-path="url(#clip0_1_952)">
<path d="M12.5 0C5.5957 0 0 5.5957 0 12.5C0 19.4043 5.5957 25 12.5 25C19.4043 25 25 19.4043 25 12.5C25 5.5957 19.4043 0 12.5 0ZM17.4902 10.5566C17.4951 10.6641 17.4951 10.7764 17.4951 10.8887C17.4951 14.2822 14.9121 18.1982 10.1855 18.1982C8.73535 18.1982 7.38281 17.7734 6.25 17.0459C6.4502 17.0703 6.65527 17.0801 6.86523 17.0801C8.06641 17.0801 9.1748 16.6699 10.0537 15.9814C8.93066 15.9619 7.97852 15.2197 7.65625 14.1992C7.8125 14.2285 7.97363 14.2432 8.13965 14.2432C8.37402 14.2432 8.60352 14.2139 8.81836 14.1504C7.6416 13.916 6.75781 12.876 6.75781 11.6309V11.6016C7.10449 11.792 7.5 11.9092 7.91992 11.9238C7.23145 11.4648 6.77734 10.6738 6.77734 9.78516C6.77734 9.31641 6.9043 8.87207 7.12402 8.49121C8.39355 10.0488 10.2832 11.0693 12.417 11.1768C12.373 10.9912 12.3486 10.7959 12.3486 10.5908C12.3486 9.1748 13.501 8.02246 14.917 8.02246C15.6543 8.02246 16.3232 8.33496 16.792 8.83301C17.3779 8.71582 17.9248 8.50586 18.4229 8.20801C18.2324 8.80859 17.8223 9.31152 17.2949 9.62891C17.8125 9.56543 18.3105 9.42871 18.7695 9.22363C18.4277 9.74121 17.9932 10.1904 17.4902 10.5566Z" fill="#DFE1E3"/>
</g>
<defs>
<clipPath id="clip0_1_952">
<rect width="25" height="25" fill="white"/>
</clipPath>
</defs>
</svg>
